<?xml version="1.0" encoding="utf-8"?>
<!-- Generator: Adobe Illustrator 25.0.1, SVG Export Plug-In . SVG Version: 6.00 Build 0)  -->
<svg version="1.1" id="Calque_1" xmlns="http://www.w3.org/2000/svg" xmlns:xlink="http://www.w3.org/1999/xlink" x="0px" y="0px"
	 viewBox="0 0 137.7 121.7" style="enable-background:new 0 0 137.7 121.7;" xml:space="preserve">
<style type="text/css">
	.st0{fill:#FF8484;}
</style>
<g id="Groupe_1047" transform="translate(19.361 17.114)">
	<path id="Tracé_1571" class="st0" d="M79.8,104.6H19.3c-3.1,0-5.9-1.6-7.4-4.3L-18.2,48c-1.5-2.6-1.5-5.9,0-8.5l30.1-52.3
		c1.5-2.6,4.3-4.3,7.4-4.3h60.5c3,0,5.9,1.6,7.4,4.3L117.2,39c1.5,2.6,1.5,5.9,0,8.5l-30,52.7C85.7,102.9,82.9,104.6,79.8,104.6
		 M19.3-10.4c-0.6,0-1.2,0.3-1.5,0.9l-30.1,52.3c-0.3,0.6-0.3,1.2,0,1.8l30.1,52.3c0.3,0.6,0.9,0.9,1.5,0.9h60.5
		c0.6,0,1.2-0.3,1.6-0.9l17.8-31.4l12.1-21.3c0.3-0.6,0.3-1.2,0-1.8L81.4-9.5c-0.3-0.6-0.9-0.9-1.5-0.9L19.3-10.4z"/>
</g>
<g id="SvgjsG1008">
	<path class="st0" d="M61.9,80c1.4,0,2.6-1.2,2.6-2.6v-2.6c0-2.8,2.3-5.2,5.2-5.2s5.2,2.3,5.2,5.2v2c0,1.7,1.4,3.1,3.2,3.1
		c0,0,0,0,0,0c10.6,0.1,19.4-8.1,20-18.7c0.3-10.7-8.1-19.6-18.7-19.9c-0.2,0-0.4,0-0.6,0h-6.4v-5.2c0-1.4-1.2-2.6-2.6-2.6
		S67,34.8,67,36.2v5.2h-5.7c-10.6-0.1-19.4,8.1-20,18.7c-0.2,5.2,1.8,10.3,5.4,14.1C50.7,78.2,56.2,80.3,61.9,80z M61.3,46.5h17.3
		c7.8,0,14.2,6.3,14.2,14.2c0,0.1,0,0.3,0,0.4c-0.4,7.1-5.9,12.8-12.9,13.6c0-5.7-4.7-10.3-10.3-10.3c-5.7,0-10.3,4.7-10.3,10.3
		c-7.5-0.7-13.1-7.1-12.9-14.6C46.9,52.5,53.4,46.4,61.3,46.5z"/>
	<path class="st0" d="M54.1,60.7h2.6v2.6c0,1.4,1.2,2.6,2.6,2.6c1.4,0,2.6-1.2,2.6-2.6v-2.6h2.6c1.4,0,2.6-1.2,2.6-2.6
		c0-1.4-1.2-2.6-2.6-2.6h-2.6V53c0-1.4-1.2-2.6-2.6-2.6c-1.4,0-2.6,1.2-2.6,2.6v2.6h-2.6c-1.4,0-2.6,1.2-2.6,2.6
		C51.6,59.6,52.7,60.7,54.1,60.7z"/>
	<circle class="st0" cx="85.1" cy="54.3" r="2.6"/>
	<circle class="st0" cx="79.9" cy="62" r="2.6"/>
</g>
</svg>
