<?xml version="1.0" encoding="utf-8"?>
<!-- Generator: Adobe Illustrator 25.0.1, SVG Export Plug-In . SVG Version: 6.00 Build 0)  -->
<svg version="1.1" id="Calque_1" xmlns="http://www.w3.org/2000/svg" xmlns:xlink="http://www.w3.org/1999/xlink" x="0px" y="0px"
	 viewBox="0 0 137.7 121.7" style="enable-background:new 0 0 137.7 121.7;" xml:space="preserve">
<style type="text/css">
	.st0{fill:#FF8484;}
</style>
<g id="Groupe_1047" transform="translate(19.361 17.114)">
	<path id="Tracé_1571" class="st0" d="M79.8,104.6H19.3c-3.1,0-5.9-1.6-7.4-4.3L-18.2,48c-1.5-2.6-1.5-5.9,0-8.5l30.1-52.3
		c1.5-2.6,4.3-4.3,7.4-4.3h60.5c3,0,5.9,1.6,7.4,4.3L117.2,39c1.5,2.6,1.5,5.9,0,8.5l-30,52.7C85.7,102.9,82.9,104.6,79.8,104.6
		 M19.3-10.4c-0.6,0-1.2,0.3-1.5,0.9l-30.1,52.3c-0.3,0.6-0.3,1.2,0,1.8l30.1,52.3c0.3,0.6,0.9,0.9,1.5,0.9h60.5
		c0.6,0,1.2-0.3,1.6-0.9l17.8-31.4l12.1-21.3c0.3-0.6,0.3-1.2,0-1.8L81.4-9.5c-0.3-0.6-0.9-0.9-1.5-0.9L19.3-10.4z"/>
</g>
<path class="st0" d="M93.3,81.7L84,72.5c7.8-9.7,6.2-24-3.5-31.8s-24-6.2-31.8,3.5s-6.2,24,3.5,31.8c8.3,6.6,20,6.6,28.3,0l9.2,9.2
	c1,1,2.6,1,3.6,0c0,0,0,0,0,0C94.2,84.2,94.2,82.7,93.3,81.7z M66.4,76c-9.7,0-17.6-7.9-17.6-17.6s7.9-17.6,17.6-17.6
	S84,48.7,84,58.4S76.1,76,66.4,76z"/>
</svg>
