<?xml version="1.0" encoding="utf-8"?>
<!-- Generator: Adobe Illustrator 25.0.1, SVG Export Plug-In . SVG Version: 6.00 Build 0)  -->
<svg version="1.1" id="Calque_1" xmlns="http://www.w3.org/2000/svg" xmlns:xlink="http://www.w3.org/1999/xlink" x="0px" y="0px"
	 viewBox="0 0 137.7 121.7" style="enable-background:new 0 0 137.7 121.7;" xml:space="preserve">
<style type="text/css">
	.st0{fill:#FF8484;}
</style>
<g id="Groupe_1047" transform="translate(19.361 17.114)">
	<path id="Tracé_1571" class="st0" d="M79.8,104.6H19.3c-3.1,0-5.9-1.6-7.4-4.3L-18.2,48c-1.5-2.6-1.5-5.9,0-8.5l30.1-52.3
		c1.5-2.6,4.3-4.3,7.4-4.3h60.5c3,0,5.9,1.6,7.4,4.3L117.2,39c1.5,2.6,1.5,5.9,0,8.5l-30,52.7C85.7,102.9,82.9,104.6,79.8,104.6
		 M19.3-10.4c-0.6,0-1.2,0.3-1.5,0.9l-30.1,52.3c-0.3,0.6-0.3,1.2,0,1.8l30.1,52.3c0.3,0.6,0.9,0.9,1.5,0.9h60.5
		c0.6,0,1.2-0.3,1.6-0.9l17.8-31.4l12.1-21.3c0.3-0.6,0.3-1.2,0-1.8L81.4-9.5c-0.3-0.6-0.9-0.9-1.5-0.9L19.3-10.4z"/>
</g>
<path class="st0" d="M72.1,57.3c2.8-2.4,4.4-5.9,4.4-9.6c0-7.1-5.8-12.9-12.9-12.9c-7.1,0-12.9,5.8-12.9,12.9c0,3.7,1.6,7.2,4.4,9.6
	C47.7,60.6,43,68,43,76.1c0,1.4,1.2,2.6,2.6,2.6s2.6-1.2,2.6-2.6c0-8.5,6.9-15.5,15.5-15.5s15.5,6.9,15.5,15.5
	c0,1.4,1.2,2.6,2.6,2.6c1.4,0,2.6-1.2,2.6-2.6C84.2,68,79.5,60.6,72.1,57.3z M63.6,55.5c-4.3,0-7.7-3.5-7.7-7.7s3.5-7.7,7.7-7.7
	c4.3,0,7.7,3.5,7.7,7.7S67.9,55.5,63.6,55.5z M88.7,56.3c4.7-5.3,4.2-13.5-1.1-18.2c-2.4-2.1-5.4-3.3-8.6-3.3
	c-1.4,0-2.6,1.2-2.6,2.6s1.2,2.6,2.6,2.6c4.3,0,7.7,3.5,7.7,7.7c0,2.8-1.5,5.3-3.9,6.7c-0.8,0.4-1.3,1.3-1.3,2.2
	c0,0.9,0.4,1.7,1.2,2.2l1,0.7l0.3,0.2c6.3,3,10.4,9.4,10.3,16.5c0,1.4,1.2,2.6,2.6,2.6c1.4,0,2.6-1.2,2.6-2.6
	C99.6,68,95.5,60.5,88.7,56.3z"/>
</svg>
