<svg id="Calque_1" data-name="Calque 1" xmlns="http://www.w3.org/2000/svg" viewBox="0 0 841.89 240.8"><defs><style>.cls-1{fill:#f08185;}.cls-2{fill:#fff;}</style></defs><path class="cls-1" d="M186.29,234.25H73.12a16,16,0,0,1-13.84-8L2.87,128.38a16.06,16.06,0,0,1,0-16L59.28,14.55a16,16,0,0,1,13.84-8H186.33a16,16,0,0,1,13.83,8l56,97.1a16,16,0,0,1,.05,15.88l-56.09,98.65a16,16,0,0,1-13.88,8.08M73.12,19.19a3.34,3.34,0,0,0-2.89,1.67L13.82,118.73a3.37,3.37,0,0,0,0,3.34l56.41,97.87a3.34,3.34,0,0,0,2.89,1.67H186.29a3.37,3.37,0,0,0,2.9-1.69l56.08-98.65a3.36,3.36,0,0,0,0-3.32l-56-97.09a3.35,3.35,0,0,0-2.89-1.67Z"/><path class="cls-1" d="M201,114a14.3,14.3,0,0,1-12.49-7.17L176.37,86.12a14.6,14.6,0,0,1-.23-14.26l5.64-10.38a5.62,5.62,0,0,0-.06-5.52l-6.28-11a5.67,5.67,0,0,0-4.91-2.85,5.66,5.66,0,0,0-5,8.37l2.32,4.25L160.08,59l-2.33-4.25a14.51,14.51,0,0,1,12.74-21.45,14.55,14.55,0,0,1,12.62,7.29l6.28,11a14.42,14.42,0,0,1,.17,14.13l-5.64,10.38a5.69,5.69,0,0,0,.09,5.57l12.12,20.69a5.66,5.66,0,0,0,9.92-.27l.23-.46a5.63,5.63,0,0,0-.14-5.44l-5.88-10.08c-1.75-3-3.68-9,2.72-15.79l8.33-14.69L219,60,210.14,75.6l-.45.49c-3.16,3.2-2.27,4.72-1.79,5.55l5.88,10.07a14.45,14.45,0,0,1,.37,14l-.24.46a14.32,14.32,0,0,1-12.5,7.86H201"/><path class="cls-1" d="M118.33,92.88A14.37,14.37,0,0,1,106,86L91.66,62.71l7.53-4.64,14.33,23.27a5.65,5.65,0,0,0,9.73-.15l11.87-20.77a5.68,5.68,0,0,0-.06-5.72l-7.42-12.36,7.59-4.56,7.41,12.37a14.51,14.51,0,0,1,.16,14.66L130.93,85.58a14.36,14.36,0,0,1-12.36,7.3h-.24"/><path class="cls-1" d="M106.92,83.49H88.5A14.54,14.54,0,0,1,75.91,76.2L67.78,62l7.67-4.4L83.59,71.8a5.67,5.67,0,0,0,4.91,2.84h18.42Z"/><rect class="cls-1" x="108.34" y="12.17" width="8.85" height="70.5" transform="translate(-8.74 61.61) rotate(-29.47)"/><rect class="cls-1" x="56.59" y="33.31" width="25.37" height="8.85"/><path class="cls-1" d="M93.43,104.84H77.13A14.13,14.13,0,0,1,65,97.91L42,59.73l7.57-4.57,23,38.22A5.28,5.28,0,0,0,77.13,96h16.3Z"/><rect class="cls-1" x="54.71" y="105.98" width="22.81" height="8.85" transform="translate(-62.49 115.06) rotate(-61.16)"/><rect class="cls-1" x="41.3" y="84.73" width="23.47" height="8.85" transform="translate(-50.7 89.13) rotate(-59.25)"/><rect class="cls-1" x="15.81" y="126.44" width="24.83" height="8.85" transform="translate(-97.27 84.26) rotate(-57.46)"/><path class="cls-1" d="M36,164.8l-7.32-5L40.5,142.52a14.12,14.12,0,0,1,12.1-6.88H64.73a5.67,5.67,0,0,0,4.9-2.82l5.59-9.63A14.57,14.57,0,0,1,87.77,116h35.88a5.67,5.67,0,0,0,4.87-2.78L149.7,77.32l7.61,4.49-21.17,35.88a14.57,14.57,0,0,1-12.49,7.13H87.77a5.69,5.69,0,0,0-4.9,2.82l-5.59,9.63a14.57,14.57,0,0,1-12.55,7.22H52.6a5.24,5.24,0,0,0-4.53,2.62l-.17.27Z"/><rect class="cls-1" x="130.72" y="118.84" width="8.85" height="22.77" transform="translate(-47.22 85.88) rotate(-30.27)"/><path class="cls-1" d="M207,144.49H170.94a14.58,14.58,0,0,1-12.47-7.09l-5.67-9.54a14.47,14.47,0,0,1,0-14.93l.65-1.07a14,14,0,0,1,12.05-6.79h0a14,14,0,0,1,12,6.85L170,116.46a5.13,5.13,0,0,0-4.48-2.54,5,5,0,0,0-4.49,2.52l-.65,1.07a5.67,5.67,0,0,0,0,5.83l5.67,9.54a5.7,5.7,0,0,0,4.87,2.76H207a5.66,5.66,0,0,0,4.85-2.75l8.84-14.76,7.59,4.54-8.83,14.76A14.6,14.6,0,0,1,207,144.49"/><path class="cls-1" d="M177.06,165.47h-6a14.49,14.49,0,0,1-12.53-21.8l2.78-4.78,7.64,4.45-2.78,4.78a5.66,5.66,0,0,0,4.89,8.51h6Z"/><path class="cls-1" d="M177.06,206.47h-17.7a14.55,14.55,0,0,1-12.6-7.32L141,189A5.69,5.69,0,0,0,136,186.1H124.5a14.54,14.54,0,0,1-12.59-7.29l-11.68-20.4a14.51,14.51,0,0,1,12.59-21.72A14.53,14.53,0,0,1,125.4,144l5.64,9.81a5.66,5.66,0,0,0,4.9,2.84v8.84a14.52,14.52,0,0,1-12.58-7.28l-5.63-9.81a5.69,5.69,0,0,0-4.91-2.84,5.65,5.65,0,0,0-4.91,8.47l11.68,20.4a5.67,5.67,0,0,0,4.91,2.85H136a14.52,14.52,0,0,1,12.6,7.32l5.82,10.19a5.65,5.65,0,0,0,4.91,2.85h17.7Z"/><rect class="cls-1" x="135.25" y="208.63" width="24.9" height="8.85" transform="translate(-109.66 244.29) rotate(-62.19)"/><path class="cls-1" d="M121.14,226.41l-7.5-4.69,4.75-7.58a5.24,5.24,0,0,0-4.64-7.67h-1.12a14.6,14.6,0,0,1-12.44-7l-1-1.59a5.67,5.67,0,0,0-9.76.09l-3,5.21-7.66-4.42,3-5.21a14.51,14.51,0,0,1,25-.23l1,1.59a5.7,5.7,0,0,0,4.86,2.74h1.12a14.08,14.08,0,0,1,12.33,20.88l-.12.21Z"/><rect class="cls-1" x="169.08" y="176.5" width="47.46" height="8.85"/><rect class="cls-1" x="203.51" y="156.63" width="23.53" height="8.85"/><path class="cls-1" d="M60.92,205.42l-7.54-4.62,16.83-27.47a5.23,5.23,0,0,0-4.53-7.85H59v-8.85h6.65A14.08,14.08,0,0,1,77.79,177.9Z"/><path class="cls-2" d="M294,32.16h12.76v6.3h.28a32.13,32.13,0,0,1,19-6.3q15,0,25.36,12.33,6.75,9.1,6.74,18.79v2q0,12.7-10.68,23-9.7,8-20.05,8h-2.52q-9,0-17.81-6.19h-.28v44.76H294Zm12.76,32q0,10.74,10.08,17.1a19.83,19.83,0,0,0,8.44,2.24H327q8,0,14.58-7.56a20.12,20.12,0,0,0,3.78-11.4V64q0-9.27-8.28-15.56a19.81,19.81,0,0,0-10.95-3.51q-9.27,0-15.68,8.11a19.68,19.68,0,0,0-3.67,11.12"/><path class="cls-2" d="M396.84,32.38a32,32,0,0,1,19.07,6.3h.16v-6.3h12.77V96.49H416.07v-6.3q-8.93,6.3-18.24,6.3h-1.7q-14.42,0-24.93-12.6a32.91,32.91,0,0,1-6.47-19.4q0-15.94,13.76-26.35a32.06,32.06,0,0,1,18.35-5.76m-19.34,32q0,10.74,10.25,17.1a19,19,0,0,0,8.82,2.24h.82q8.72,0,15.18-8.11a19.08,19.08,0,0,0,3.5-10.52v-.87q0-10-9.53-16.39a20.15,20.15,0,0,0-9.81-2.68q-9.19,0-15.56,8.11a19.58,19.58,0,0,0-3.67,11.12"/><polygon class="cls-2" points="438.67 0 451.44 0 451.44 32.38 486.51 32.38 486.51 45.15 451.44 45.15 451.44 96.49 438.67 96.49 438.67 45.15 402.46 45.15 402.46 32.38 438.67 32.38 438.67 0"/><path class="cls-2" d="M459.58.27h12.76V38.68h.17A32.24,32.24,0,0,1,492,32.38q14.52,0,25.15,12.33,6.57,9.21,6.57,19.12V96.49H510.92V64.22q0-9.87-9.1-16.11a19,19,0,0,0-10.41-3q-9,0-15.4,8.16a19.85,19.85,0,0,0-3.67,12.17v31H459.58Z"/><path class="cls-2" d="M562.66,32.38q12.62,0,22.47,9.43,9.36,9.91,9.37,22.68,0,13.37-10.36,23.56a31.66,31.66,0,0,1-21.59,8.44h-.27q-14.29,0-24.44-11.34a32.06,32.06,0,0,1-1.8-39q10.29-13.76,26.62-13.76m-19.45,31v.83l-.16.16.16.11v.88q0,7.77,7.4,14.41a20.26,20.26,0,0,0,11.78,3.94q9.48,0,15.73-8.11a19.65,19.65,0,0,0,3.67-11.12q0-10-9.26-16.55a21.23,21.23,0,0,0-10.41-2.79q-9.6,0-16,9a18.4,18.4,0,0,0-2.91,9.26"/><rect class="cls-2" x="601.1" y="0.27" width="12.77" height="96.21"/><path class="cls-2" d="M652.85,32.38q12.6,0,22.46,9.43,9.38,9.91,9.37,22.68,0,13.37-10.35,23.56a31.68,31.68,0,0,1-21.59,8.44h-.27q-14.31,0-24.44-11.34a32.08,32.08,0,0,1-1.81-39q10.31-13.76,26.63-13.76m-19.45,31v.83l-.17.16.17.11v.88q0,7.77,7.39,14.41a20.29,20.29,0,0,0,11.79,3.94q9.46,0,15.72-8.11A19.58,19.58,0,0,0,672,64.49q0-10-9.26-16.55a21.23,21.23,0,0,0-10.41-2.79q-9.59,0-16,9a18.38,18.38,0,0,0-2.9,9.26"/><path class="cls-2" d="M723.28,32.6a32.18,32.18,0,0,1,19.18,6.3h.16V32.6h12.77v68.71q0,18.36-13,28.49a33.77,33.77,0,0,1-19.07,5.48q-21.25,0-29.48-19.23a37.49,37.49,0,0,1-2.52-12.33v-.55h12.77v.11q0,6.73,4.77,13.48,5.25,5.76,14.57,5.75,13,0,17.54-11.34a29.36,29.36,0,0,0,1.69-9.7V90.41h-.16a31.69,31.69,0,0,1-19.07,6.3H723q-15.68,0-26.25-13.86-5.47-8.71-5.48-17V63.45q0-10.9,8.55-20.77,10-10.08,23.45-10.08M704.05,63.89v1.53q0,8.06,7.45,14.47a19.14,19.14,0,0,0,11.78,4q11.4,0,17.65-11.34a24,24,0,0,0,1.69-8q0-8.28-6.85-14.63a19.27,19.27,0,0,0-12.49-4.6q-10.62,0-17,10.08a19.68,19.68,0,0,0-2.25,8.44"/><path class="cls-2" d="M770.47,15.18q4.54,0,6.14,5l.16,1.42q0,4.44-4.77,6.2l-1.26.1h-.54q-4.34,0-6-4.76L764,21.92v-.44q0-4.38,4.61-6ZM764,32.38h12.77V96.49H764Z"/><path class="cls-2" d="M815.65,32.38q15.39,0,25.91,13.32l.33.54q-10.08,7.62-10.41,7.62-6.09-8.72-16.27-8.71-9.71,0-16.28,9.26a21.06,21.06,0,0,0-2.79,10.08q0,10.35,10,16.82a20.19,20.19,0,0,0,9.37,2.41q9.71,0,16.16-8.71l10.25,7.62q-.93,2-6.19,6.68a31.33,31.33,0,0,1-20,7.18h-.38Q800.31,96.49,790,84a32.65,32.65,0,0,1-6.58-19.62q0-13.53,10.52-23.72a32.11,32.11,0,0,1,21.76-8.28"/><path class="cls-2" d="M326,138.11a32.14,32.14,0,0,1,19.17,6.31h.17v-6.31h12.76v68.72q0,18.35-13,28.49A33.73,33.73,0,0,1,326,240.8q-21.27,0-29.48-19.24A37.13,37.13,0,0,1,294,209.24v-.55h12.76v.11q0,6.73,4.77,13.48,5.26,5.75,14.58,5.75,13,0,17.53-11.34a29.42,29.42,0,0,0,1.7-9.7V195.92h-.17a31.68,31.68,0,0,1-19.06,6.3h-.39q-15.67,0-26.24-13.86-5.49-8.72-5.48-17V169q0-10.9,8.54-20.77,10-10.08,23.46-10.09M306.79,169.4v1.54q0,8,7.45,14.46A19.16,19.16,0,0,0,326,189.46q11.39,0,17.64-11.35a24.06,24.06,0,0,0,1.7-8q0-8.27-6.85-14.63a19.34,19.34,0,0,0-12.49-4.6q-10.63,0-17,10.08a19.72,19.72,0,0,0-2.25,8.44"/><path class="cls-2" d="M396.84,137.9a32,32,0,0,1,19.07,6.3h.16v-6.3h12.77V202H416.07v-6.3q-8.93,6.3-18.24,6.3h-1.7q-14.42,0-24.93-12.6a32.89,32.89,0,0,1-6.47-19.4q0-15.93,13.76-26.35a32,32,0,0,1,18.35-5.75m-19.34,32q0,10.74,10.25,17.1a18.89,18.89,0,0,0,8.82,2.25h.82q8.72,0,15.18-8.11a19.1,19.1,0,0,0,3.5-10.52v-.88q0-10-9.53-16.38a20.16,20.16,0,0,0-9.81-2.69q-9.19,0-15.56,8.11a19.62,19.62,0,0,0-3.67,11.12"/><path class="cls-2" d="M435.44,137.9h12.77v3.34h.16a25.62,25.62,0,0,1,12.72-3.34q11.12,0,19.23,8.71a25.25,25.25,0,0,1,19.5-8.71q10.57,0,18.69,8.27a25.9,25.9,0,0,1,6.68,17.7V202H512.42V163.87q0-8.88-8.93-12.66a19.59,19.59,0,0,0-3.94-.55q-7.85,0-11.95,8a18.47,18.47,0,0,0-1,6.47V202H473.85V163.16q0-7-7.4-11.4a16.86,16.86,0,0,0-5.64-1.1q-7.06,0-11.51,7.45a16,16,0,0,0-1.09,5.16V202H435.44Z"/><path class="cls-2" d="M564.06,137.9q14.15,0,24.38,11.34A32.52,32.52,0,0,1,596,169.89a41.38,41.38,0,0,1-.66,6.42H545.82a18.77,18.77,0,0,0,9.42,10.84,19.12,19.12,0,0,0,8.66,2.09c5,0,11.58.2,18.11,0V202H563.79q-14.29,0-24.44-11.34A32.43,32.43,0,0,1,531.79,170q0-14.24,11.34-24.54a32.1,32.1,0,0,1,20.93-7.56m-18.24,25.69H582a19.8,19.8,0,0,0-8.66-10.52,21.52,21.52,0,0,0-9.53-2.41q-10.18,0-16.71,9.81Z"/><path class="cls-2" d="M624.69,137.9h55.67v12.76H624.69q-5.21,0-6.47,1.7a8.84,8.84,0,0,0-1.81,5,5.65,5.65,0,0,0,4,5.76l2.36.43h17.15q15.55,0,20.32,11.89a23.49,23.49,0,0,1,1.26,7.45q0,11.85-10.52,17.1a19.23,19.23,0,0,1-8,2H582V189.24h60.21a6,6,0,0,0,6-3.78l.44-2.69q0-6.47-7.84-6.46H622.33q-7.29,0-13.48-5.59a18.84,18.84,0,0,1-5.2-13.48,20.86,20.86,0,0,1,5-13.43q5-5.91,16-5.91"/><path class="cls-2" d="M294,32.16h12.76v6.3h.28a32.13,32.13,0,0,1,19-6.3q15,0,25.36,12.33,6.75,9.1,6.74,18.79v2q0,12.7-10.68,23-9.7,8-20.05,8h-2.52q-9,0-17.81-6.19h-.28v44.76H294Zm12.76,32q0,10.74,10.08,17.1a19.83,19.83,0,0,0,8.44,2.24H327q8,0,14.58-7.56a20.12,20.12,0,0,0,3.78-11.4V64q0-9.27-8.28-15.56a19.81,19.81,0,0,0-10.95-3.51q-9.27,0-15.68,8.11a19.68,19.68,0,0,0-3.67,11.12"/><path class="cls-2" d="M396.84,32.38a32,32,0,0,1,19.07,6.3h.16v-6.3h12.77V96.49H416.07v-6.3q-8.93,6.3-18.24,6.3h-1.7q-14.42,0-24.93-12.6a32.91,32.91,0,0,1-6.47-19.4q0-15.94,13.76-26.35a32.06,32.06,0,0,1,18.35-5.76m-19.34,32q0,10.74,10.25,17.1a19,19,0,0,0,8.82,2.24h.82q8.72,0,15.18-8.11a19.08,19.08,0,0,0,3.5-10.52v-.87q0-10-9.53-16.39a20.15,20.15,0,0,0-9.81-2.68q-9.19,0-15.56,8.11a19.58,19.58,0,0,0-3.67,11.12"/><polygon class="cls-2" points="438.67 0 451.44 0 451.44 32.38 486.51 32.38 486.51 45.15 451.44 45.15 451.44 96.49 438.67 96.49 438.67 45.15 402.46 45.15 402.46 32.38 438.67 32.38 438.67 0"/><path class="cls-2" d="M459.58.27h12.76V38.68h.17A32.24,32.24,0,0,1,492,32.38q14.52,0,25.15,12.33,6.57,9.21,6.57,19.12V96.49H510.92V64.22q0-9.87-9.1-16.11a19,19,0,0,0-10.41-3q-9,0-15.4,8.16a19.85,19.85,0,0,0-3.67,12.17v31H459.58Z"/><path class="cls-2" d="M562.66,32.38q12.62,0,22.47,9.43,9.36,9.91,9.37,22.68,0,13.37-10.36,23.56a31.66,31.66,0,0,1-21.59,8.44h-.27q-14.29,0-24.44-11.34a32.06,32.06,0,0,1-1.8-39q10.29-13.76,26.62-13.76m-19.45,31v.83l-.16.16.16.11v.88q0,7.77,7.4,14.41a20.26,20.26,0,0,0,11.78,3.94q9.48,0,15.73-8.11a19.65,19.65,0,0,0,3.67-11.12q0-10-9.26-16.55a21.23,21.23,0,0,0-10.41-2.79q-9.6,0-16,9a18.4,18.4,0,0,0-2.91,9.26"/><rect class="cls-2" x="601.1" y="0.27" width="12.77" height="96.21"/><path class="cls-2" d="M652.85,32.38q12.6,0,22.46,9.43,9.38,9.91,9.37,22.68,0,13.37-10.35,23.56a31.68,31.68,0,0,1-21.59,8.44h-.27q-14.31,0-24.44-11.34a32.08,32.08,0,0,1-1.81-39q10.31-13.76,26.63-13.76m-19.45,31v.83l-.17.16.17.11v.88q0,7.77,7.39,14.41a20.29,20.29,0,0,0,11.79,3.94q9.46,0,15.72-8.11A19.58,19.58,0,0,0,672,64.49q0-10-9.26-16.55a21.23,21.23,0,0,0-10.41-2.79q-9.59,0-16,9a18.38,18.38,0,0,0-2.9,9.26"/><path class="cls-2" d="M723.28,32.6a32.18,32.18,0,0,1,19.18,6.3h.16V32.6h12.77v68.71q0,18.36-13,28.49a33.77,33.77,0,0,1-19.07,5.48q-21.25,0-29.48-19.23a37.49,37.49,0,0,1-2.52-12.33v-.55h12.77v.11q0,6.73,4.77,13.48,5.25,5.76,14.57,5.75,13,0,17.54-11.34a29.36,29.36,0,0,0,1.69-9.7V90.41h-.16a31.69,31.69,0,0,1-19.07,6.3H723q-15.68,0-26.25-13.86-5.47-8.71-5.48-17V63.45q0-10.9,8.55-20.77,10-10.08,23.45-10.08M704.05,63.89v1.53q0,8.06,7.45,14.47a19.14,19.14,0,0,0,11.78,4q11.4,0,17.65-11.34a24,24,0,0,0,1.69-8q0-8.28-6.85-14.63a19.27,19.27,0,0,0-12.49-4.6q-10.62,0-17,10.08a19.68,19.68,0,0,0-2.25,8.44"/><path class="cls-2" d="M770.47,15.18q4.54,0,6.14,5l.16,1.42q0,4.44-4.77,6.2l-1.26.1h-.54q-4.34,0-6-4.76L764,21.92v-.44q0-4.38,4.61-6ZM764,32.38h12.77V96.49H764Z"/><path class="cls-2" d="M815.65,32.38q15.39,0,25.91,13.32l.33.54q-10.08,7.62-10.41,7.62-6.09-8.72-16.27-8.71-9.71,0-16.28,9.26a21.06,21.06,0,0,0-2.79,10.08q0,10.35,10,16.82a20.19,20.19,0,0,0,9.37,2.41q9.71,0,16.16-8.71l10.25,7.62q-.93,2-6.19,6.68a31.33,31.33,0,0,1-20,7.18h-.38Q800.31,96.49,790,84a32.65,32.65,0,0,1-6.58-19.62q0-13.53,10.52-23.72a32.11,32.11,0,0,1,21.76-8.28"/><path class="cls-2" d="M326,138.11a32.14,32.14,0,0,1,19.17,6.31h.17v-6.31h12.76v68.72q0,18.35-13,28.49A33.73,33.73,0,0,1,326,240.8q-21.27,0-29.48-19.24A37.13,37.13,0,0,1,294,209.24v-.55h12.76v.11q0,6.73,4.77,13.48,5.26,5.75,14.58,5.75,13,0,17.53-11.34a29.42,29.42,0,0,0,1.7-9.7V195.92h-.17a31.68,31.68,0,0,1-19.06,6.3h-.39q-15.67,0-26.24-13.86-5.49-8.72-5.48-17V169q0-10.9,8.54-20.77,10-10.08,23.46-10.09M306.79,169.4v1.54q0,8,7.45,14.46A19.16,19.16,0,0,0,326,189.46q11.39,0,17.64-11.35a24.06,24.06,0,0,0,1.7-8q0-8.27-6.85-14.63a19.34,19.34,0,0,0-12.49-4.6q-10.63,0-17,10.08a19.72,19.72,0,0,0-2.25,8.44"/><path class="cls-2" d="M396.84,137.9a32,32,0,0,1,19.07,6.3h.16v-6.3h12.77V202H416.07v-6.3q-8.93,6.3-18.24,6.3h-1.7q-14.42,0-24.93-12.6a32.89,32.89,0,0,1-6.47-19.4q0-15.93,13.76-26.35a32,32,0,0,1,18.35-5.75m-19.34,32q0,10.74,10.25,17.1a18.89,18.89,0,0,0,8.82,2.25h.82q8.72,0,15.18-8.11a19.1,19.1,0,0,0,3.5-10.52v-.88q0-10-9.53-16.38a20.16,20.16,0,0,0-9.81-2.69q-9.19,0-15.56,8.11a19.62,19.62,0,0,0-3.67,11.12"/><path class="cls-2" d="M435.44,137.9h12.77v3.34h.16a25.62,25.62,0,0,1,12.72-3.34q11.12,0,19.23,8.71a25.25,25.25,0,0,1,19.5-8.71q10.57,0,18.69,8.27a25.9,25.9,0,0,1,6.68,17.7V202H512.42V163.87q0-8.88-8.93-12.66a19.59,19.59,0,0,0-3.94-.55q-7.85,0-11.95,8a18.47,18.47,0,0,0-1,6.47V202H473.85V163.16q0-7-7.4-11.4a16.86,16.86,0,0,0-5.64-1.1q-7.06,0-11.51,7.45a16,16,0,0,0-1.09,5.16V202H435.44Z"/><path class="cls-2" d="M564.06,137.9q14.15,0,24.38,11.34A32.52,32.52,0,0,1,596,169.89a41.38,41.38,0,0,1-.66,6.42H545.82a18.77,18.77,0,0,0,9.42,10.84,19.12,19.12,0,0,0,8.66,2.09c5,0,11.58.2,18.11,0V202H563.79q-14.29,0-24.44-11.34A32.43,32.43,0,0,1,531.79,170q0-14.24,11.34-24.54a32.1,32.1,0,0,1,20.93-7.56m-18.24,25.69H582a19.8,19.8,0,0,0-8.66-10.52,21.52,21.52,0,0,0-9.53-2.41q-10.18,0-16.71,9.81Z"/><path class="cls-2" d="M624.69,137.9h55.67v12.76H624.69q-5.21,0-6.47,1.7a8.84,8.84,0,0,0-1.81,5,5.65,5.65,0,0,0,4,5.76l2.36.43h17.15q15.55,0,20.32,11.89a23.49,23.49,0,0,1,1.26,7.45q0,11.85-10.52,17.1a19.23,19.23,0,0,1-8,2H582V189.24h60.21a6,6,0,0,0,6-3.78l.44-2.69q0-6.47-7.84-6.46H622.33q-7.29,0-13.48-5.59a18.84,18.84,0,0,1-5.2-13.48,20.86,20.86,0,0,1,5-13.43q5-5.91,16-5.91"/><path class="cls-2" d="M294,32.16h12.76v6.3h.28a32.13,32.13,0,0,1,19-6.3q15,0,25.36,12.33,6.75,9.1,6.74,18.79v2q0,12.7-10.68,23-9.7,8-20.05,8h-2.52q-9,0-17.81-6.19h-.28v44.76H294Zm12.76,32q0,10.74,10.08,17.1a19.83,19.83,0,0,0,8.44,2.24H327q8,0,14.58-7.56a20.12,20.12,0,0,0,3.78-11.4V64q0-9.27-8.28-15.56a19.81,19.81,0,0,0-10.95-3.51q-9.27,0-15.68,8.11a19.68,19.68,0,0,0-3.67,11.12"/><path class="cls-2" d="M396.84,32.38a32,32,0,0,1,19.07,6.3h.16v-6.3h12.77V96.49H416.07v-6.3q-8.93,6.3-18.24,6.3h-1.7q-14.42,0-24.93-12.6a32.91,32.91,0,0,1-6.47-19.4q0-15.94,13.76-26.35a32.06,32.06,0,0,1,18.35-5.76m-19.34,32q0,10.74,10.25,17.1a19,19,0,0,0,8.82,2.24h.82q8.72,0,15.18-8.11a19.08,19.08,0,0,0,3.5-10.52v-.87q0-10-9.53-16.39a20.15,20.15,0,0,0-9.81-2.68q-9.19,0-15.56,8.11a19.58,19.58,0,0,0-3.67,11.12"/><polygon class="cls-2" points="438.67 0 451.44 0 451.44 32.38 486.51 32.38 486.51 45.15 451.44 45.15 451.44 96.49 438.67 96.49 438.67 45.15 402.46 45.15 402.46 32.38 438.67 32.38 438.67 0"/><path class="cls-2" d="M459.58.27h12.76V38.68h.17A32.24,32.24,0,0,1,492,32.38q14.52,0,25.15,12.33,6.57,9.21,6.57,19.12V96.49H510.92V64.22q0-9.87-9.1-16.11a19,19,0,0,0-10.41-3q-9,0-15.4,8.16a19.85,19.85,0,0,0-3.67,12.17v31H459.58Z"/><path class="cls-2" d="M562.66,32.38q12.62,0,22.47,9.43,9.36,9.91,9.37,22.68,0,13.37-10.36,23.56a31.66,31.66,0,0,1-21.59,8.44h-.27q-14.29,0-24.44-11.34a32.06,32.06,0,0,1-1.8-39q10.29-13.76,26.62-13.76m-19.45,31v.83l-.16.16.16.11v.88q0,7.77,7.4,14.41a20.26,20.26,0,0,0,11.78,3.94q9.48,0,15.73-8.11a19.65,19.65,0,0,0,3.67-11.12q0-10-9.26-16.55a21.23,21.23,0,0,0-10.41-2.79q-9.6,0-16,9a18.4,18.4,0,0,0-2.91,9.26"/><rect class="cls-2" x="601.1" y="0.27" width="12.77" height="96.21"/><path class="cls-2" d="M652.85,32.38q12.6,0,22.46,9.43,9.38,9.91,9.37,22.68,0,13.37-10.35,23.56a31.68,31.68,0,0,1-21.59,8.44h-.27q-14.31,0-24.44-11.34a32.08,32.08,0,0,1-1.81-39q10.31-13.76,26.63-13.76m-19.45,31v.83l-.17.16.17.11v.88q0,7.77,7.39,14.41a20.29,20.29,0,0,0,11.79,3.94q9.46,0,15.72-8.11A19.58,19.58,0,0,0,672,64.49q0-10-9.26-16.55a21.23,21.23,0,0,0-10.41-2.79q-9.59,0-16,9a18.38,18.38,0,0,0-2.9,9.26"/><path class="cls-2" d="M723.28,32.6a32.18,32.18,0,0,1,19.18,6.3h.16V32.6h12.77v68.71q0,18.36-13,28.49a33.77,33.77,0,0,1-19.07,5.48q-21.25,0-29.48-19.23a37.49,37.49,0,0,1-2.52-12.33v-.55h12.77v.11q0,6.73,4.77,13.48,5.25,5.76,14.57,5.75,13,0,17.54-11.34a29.36,29.36,0,0,0,1.69-9.7V90.41h-.16a31.69,31.69,0,0,1-19.07,6.3H723q-15.68,0-26.25-13.86-5.47-8.71-5.48-17V63.45q0-10.9,8.55-20.77,10-10.08,23.45-10.08M704.05,63.89v1.53q0,8.06,7.45,14.47a19.14,19.14,0,0,0,11.78,4q11.4,0,17.65-11.34a24,24,0,0,0,1.69-8q0-8.28-6.85-14.63a19.27,19.27,0,0,0-12.49-4.6q-10.62,0-17,10.08a19.68,19.68,0,0,0-2.25,8.44"/><path class="cls-2" d="M770.47,15.18q4.54,0,6.14,5l.16,1.42q0,4.44-4.77,6.2l-1.26.1h-.54q-4.34,0-6-4.76L764,21.92v-.44q0-4.38,4.61-6ZM764,32.38h12.77V96.49H764Z"/><path class="cls-2" d="M815.65,32.38q15.39,0,25.91,13.32l.33.54q-10.08,7.62-10.41,7.62-6.09-8.72-16.27-8.71-9.71,0-16.28,9.26a21.06,21.06,0,0,0-2.79,10.08q0,10.35,10,16.82a20.19,20.19,0,0,0,9.37,2.41q9.71,0,16.16-8.71l10.25,7.62q-.93,2-6.19,6.68a31.33,31.33,0,0,1-20,7.18h-.38Q800.31,96.49,790,84a32.65,32.65,0,0,1-6.58-19.62q0-13.53,10.52-23.72a32.11,32.11,0,0,1,21.76-8.28"/><path class="cls-2" d="M326,138.11a32.14,32.14,0,0,1,19.17,6.31h.17v-6.31h12.76v68.72q0,18.35-13,28.49A33.73,33.73,0,0,1,326,240.8q-21.27,0-29.48-19.24A37.13,37.13,0,0,1,294,209.24v-.55h12.76v.11q0,6.73,4.77,13.48,5.26,5.75,14.58,5.75,13,0,17.53-11.34a29.42,29.42,0,0,0,1.7-9.7V195.92h-.17a31.68,31.68,0,0,1-19.06,6.3h-.39q-15.67,0-26.24-13.86-5.49-8.72-5.48-17V169q0-10.9,8.54-20.77,10-10.08,23.46-10.09M306.79,169.4v1.54q0,8,7.45,14.46A19.16,19.16,0,0,0,326,189.46q11.39,0,17.64-11.35a24.06,24.06,0,0,0,1.7-8q0-8.27-6.85-14.63a19.34,19.34,0,0,0-12.49-4.6q-10.63,0-17,10.08a19.72,19.72,0,0,0-2.25,8.44"/><path class="cls-2" d="M396.84,137.9a32,32,0,0,1,19.07,6.3h.16v-6.3h12.77V202H416.07v-6.3q-8.93,6.3-18.24,6.3h-1.7q-14.42,0-24.93-12.6a32.89,32.89,0,0,1-6.47-19.4q0-15.93,13.76-26.35a32,32,0,0,1,18.35-5.75m-19.34,32q0,10.74,10.25,17.1a18.89,18.89,0,0,0,8.82,2.25h.82q8.72,0,15.18-8.11a19.1,19.1,0,0,0,3.5-10.52v-.88q0-10-9.53-16.38a20.16,20.16,0,0,0-9.81-2.69q-9.19,0-15.56,8.11a19.62,19.62,0,0,0-3.67,11.12"/><path class="cls-2" d="M435.44,137.9h12.77v3.34h.16a25.62,25.62,0,0,1,12.72-3.34q11.12,0,19.23,8.71a25.25,25.25,0,0,1,19.5-8.71q10.57,0,18.69,8.27a25.9,25.9,0,0,1,6.68,17.7V202H512.42V163.87q0-8.88-8.93-12.66a19.59,19.59,0,0,0-3.94-.55q-7.85,0-11.95,8a18.47,18.47,0,0,0-1,6.47V202H473.85V163.16q0-7-7.4-11.4a16.86,16.86,0,0,0-5.64-1.1q-7.06,0-11.51,7.45a16,16,0,0,0-1.09,5.16V202H435.44Z"/><path class="cls-2" d="M564.06,137.9q14.15,0,24.38,11.34A32.52,32.52,0,0,1,596,169.89a41.38,41.38,0,0,1-.66,6.42H545.82a18.77,18.77,0,0,0,9.42,10.84,19.12,19.12,0,0,0,8.66,2.09c5,0,11.58.2,18.11,0V202H563.79q-14.29,0-24.44-11.34A32.43,32.43,0,0,1,531.79,170q0-14.24,11.34-24.54a32.1,32.1,0,0,1,20.93-7.56m-18.24,25.69H582a19.8,19.8,0,0,0-8.66-10.52,21.52,21.52,0,0,0-9.53-2.41q-10.18,0-16.71,9.81Z"/><path class="cls-2" d="M624.69,137.9h55.67v12.76H624.69q-5.21,0-6.47,1.7a8.84,8.84,0,0,0-1.81,5,5.65,5.65,0,0,0,4,5.76l2.36.43h17.15q15.55,0,20.32,11.89a23.49,23.49,0,0,1,1.26,7.45q0,11.85-10.52,17.1a19.23,19.23,0,0,1-8,2H582V189.24h60.21a6,6,0,0,0,6-3.78l.44-2.69q0-6.47-7.84-6.46H622.33q-7.29,0-13.48-5.59a18.84,18.84,0,0,1-5.2-13.48,20.86,20.86,0,0,1,5-13.43q5-5.91,16-5.91"/></svg>